<svg width="16" height="16" viewBox="0 0 16 16" fill="none" xmlns="http://www.w3.org/2000/svg">
<path d="M7.66671 13.3333L10.9067 6.84665H8.66671V2.66665L5.33337 9.15331H7.66671V13.3333ZM8.00004 1.33331C9.83337 1.33331 11.4 1.99998 12.7 3.29998C14 4.59998 14.6667 6.16665 14.6667 7.99998C14.6667 9.83331 14 11.4 12.7 12.7C11.4 14 9.83337 14.6666 8.00004 14.6666C6.16671 14.6666 4.60004 14 3.30004 12.7C2.00004 11.4 1.33337 9.83331 1.33337 7.99998C1.33337 6.16665 2.00004 4.59998 3.30004 3.29998C4.60004 1.99998 6.16671 1.33331 8.00004 1.33331Z" fill="black"/>
</svg>
