<svg width="324" height="90" viewBox="0 0 324 90" fill="none" xmlns="http://www.w3.org/2000/svg">
<path d="M44.7838 89.5527C20.0894 89.5527 0 69.4633 0 44.7689C0 33.0998 4.32189 22.5186 12.5037 14.158C12.9061 13.7407 13.532 13.6662 14.0238 13.9493C14.5156 14.2325 14.7541 14.8286 14.605 15.38C14.4113 16.1103 10.0298 33.4426 36.0208 44.2771C66.3188 56.9149 66.4827 79.1056 64.8582 84.3664C64.7539 84.6943 64.5155 84.9775 64.2025 85.1265C58.1221 88.0624 51.5945 89.5527 44.7838 89.5527ZM11.7734 18.7183C5.61846 26.1401 2.50372 34.8882 2.50372 44.7838C2.50372 68.0923 21.4604 87.049 44.7689 87.049C50.9984 87.049 57.0043 85.7226 62.593 83.1146C63.8746 77.5259 62.6675 58.1072 35.0521 46.602C14.6199 38.0774 11.7734 25.1863 11.7734 18.7183Z" fill="#4CA488"/>
<path d="M75.9312 76.423C75.7375 76.423 75.5586 76.3783 75.3798 76.2889C74.888 76.0505 74.6197 75.5289 74.6794 74.9923C76.9148 58.1966 66.274 49.9999 47.1086 41.52C19.687 29.3889 24.4857 5.40982 24.5305 5.17137C24.605 4.79879 24.8583 4.47093 25.216 4.30699C31.0282 1.49031 37.7942 0 44.7838 0C69.4782 0 89.5675 20.0894 89.5675 44.7838C89.5526 56.5274 85.037 67.6302 76.8403 76.0505C76.6019 76.2889 76.274 76.423 75.9312 76.423ZM26.8851 6.2891C26.3188 9.95526 24.6646 28.8375 48.1369 39.2398C69.5378 48.7182 77.9282 57.7346 77.496 71.5497C83.6808 64.0088 87.034 54.6496 87.034 44.7838C87.034 21.4754 68.0773 2.51862 44.7689 2.51862C38.4052 2.50372 32.2354 3.81519 26.8851 6.2891Z" fill="#4CA488"/>
<path d="M74.2472 86.0802C62.4738 86.0802 49.4038 81.0131 35.9314 71.1771C23.4575 62.0713 14.9031 51.9521 14.8137 51.8478C14.3666 51.3113 14.4411 50.5214 14.9627 50.0743C15.4993 49.6272 16.2891 49.7018 16.7362 50.2234C17.0641 50.6108 50.2682 89.5824 81.7882 82.7717C82.4737 82.6227 83.1295 83.0549 83.2785 83.7404C83.4275 84.426 82.9953 85.0817 82.3098 85.2307C79.7018 85.8119 77.0043 86.0802 74.2472 86.0802Z" fill="#4CA488"/>
<path d="M29.5976 70.8342C23.1148 70.8342 19.3443 67.0786 19.1505 66.87C18.6587 66.3782 18.6736 65.5734 19.1655 65.0965C19.6573 64.6047 20.4471 64.6196 20.9389 65.1114C21.1476 65.3201 25.8122 69.8655 33.6811 67.7642C34.2474 66.8104 35.9463 62.8611 30.9538 54.9028C30.5812 54.3216 30.7601 53.5466 31.3562 53.1741C31.9374 52.8015 32.7124 52.9803 33.0849 53.5764C40.0149 64.6047 35.5439 69.5227 35.3502 69.7314C35.2012 69.8953 35.0074 70.0146 34.7988 70.0742C32.921 70.6107 31.1773 70.8342 29.5976 70.8342Z" fill="#4CA488"/>
<path d="M45.2161 81.6688C38.8972 81.6688 31.7586 78.092 31.3562 77.8834C30.7452 77.5704 30.4918 76.8104 30.8048 76.1993C31.1177 75.5883 31.8778 75.335 32.4888 75.6479C35.842 77.3469 45.5141 81.0876 49.8658 77.943C50.4321 77.5406 51.2071 77.6598 51.6244 78.2262C52.0268 78.7925 51.9076 79.5674 51.3412 79.9847C49.6274 81.2068 47.4813 81.6688 45.2161 81.6688Z" fill="#4CA488"/>
<path d="M52.0268 80.8791C51.7138 80.8791 51.4157 80.7599 51.1624 80.5363C50.6557 80.0743 50.6259 79.2845 51.0879 78.7778C51.1922 78.6436 54.8733 73.8299 45.7228 60.894C45.3204 60.3277 45.4545 59.5379 46.0208 59.1504C46.5871 58.748 47.3621 58.8821 47.7645 59.4484C52.1013 65.5885 54.3517 70.894 54.4262 75.2308C54.4858 78.7181 53.0849 80.3128 52.9359 80.4767C52.6974 80.745 52.3695 80.8791 52.0268 80.8791Z" fill="#4CA488"/>
<path d="M74.0534 39.6422C73.6957 39.6422 73.3381 39.4931 73.0847 39.1951C72.7568 38.7927 39.7167 -0.298127 8.18175 6.36356C7.51111 6.49768 6.84047 6.06549 6.69144 5.39485C6.54241 4.70931 6.9895 4.05358 7.66014 3.90455C21.371 1.01335 37.3918 5.94627 53.9789 18.1668C66.4081 27.3173 74.9327 37.4812 75.0221 37.5855C75.4692 38.122 75.3947 38.9119 74.8582 39.359C74.6197 39.5527 74.3366 39.6422 74.0534 39.6422Z" fill="#4CA488"/>
<path d="M57.7941 36.3933C57.3768 36.3933 56.9595 36.1847 56.7211 35.7972C49.8507 24.7391 54.3366 19.836 54.5303 19.6422C54.6793 19.4783 54.8731 19.3591 55.0966 19.2995C64.7389 16.5275 70.4915 22.3099 70.73 22.5483C71.2069 23.0402 71.2069 23.8449 70.7002 24.3218C70.2084 24.7987 69.4185 24.7987 68.9267 24.292C68.718 24.0834 64.0832 19.5081 56.1846 21.5946C55.6033 22.5334 53.8895 26.4828 58.8522 34.4708C59.2248 35.0669 59.031 35.827 58.4498 36.1996C58.2561 36.3188 58.0176 36.3933 57.7941 36.3933Z" fill="#4CA488"/>
<path d="M58.0028 13.8598C57.8091 13.8598 57.6153 13.8151 57.4365 13.7257C54.0833 12.0118 44.441 8.22641 40.0595 11.3561C39.4932 11.7584 38.7182 11.6243 38.3009 11.0729C37.8985 10.5066 38.0327 9.73163 38.5841 9.31434C45.0818 4.66458 58.0177 11.2219 58.5691 11.5051C59.1802 11.8181 59.4335 12.5781 59.1056 13.1891C58.897 13.6064 58.4648 13.8598 58.0028 13.8598Z" fill="#4CA488"/>
<path d="M43.0997 30.3872C42.6973 30.3872 42.3098 30.1935 42.0714 29.8507C37.7495 23.6958 35.5438 18.3754 35.4842 14.0386C35.4395 10.5512 36.8404 8.97151 37.0043 8.79267C37.4812 8.28596 38.2711 8.27106 38.7778 8.74796C39.2696 9.22486 39.2994 9.99982 38.8523 10.5065C38.748 10.6407 35.0371 15.4394 44.1429 28.42C44.5453 28.9864 44.3962 29.7762 43.8299 30.1637C43.5915 30.3127 43.353 30.3872 43.0997 30.3872Z" fill="#4CA488"/>
<path d="M115.9 63V33.24H122.68L123.34 37.26C124.3 35.82 125.56 34.68 127.12 33.84C128.72 32.96 130.56 32.52 132.64 32.52C137.24 32.52 140.5 34.3 142.42 37.86C143.5 36.22 144.94 34.92 146.74 33.96C148.58 33 150.58 32.52 152.74 32.52C156.62 32.52 159.6 33.68 161.68 36C163.76 38.32 164.8 41.72 164.8 46.2V63H157.12V46.92C157.12 44.36 156.62 42.4 155.62 41.04C154.66 39.68 153.16 39 151.12 39C149.04 39 147.36 39.76 146.08 41.28C144.84 42.8 144.22 44.92 144.22 47.64V63H136.54V46.92C136.54 44.36 136.04 42.4 135.04 41.04C134.04 39.68 132.5 39 130.42 39C128.38 39 126.72 39.76 125.44 41.28C124.2 42.8 123.58 44.92 123.58 47.64V63H115.9ZM174.815 76.2L181.715 61.02H179.915L168.335 33.24H176.675L185.015 54.18L193.715 33.24H201.875L182.975 76.2H174.815ZM226.096 63.72C221.856 63.72 218.216 62.82 215.176 61.02C212.136 59.18 209.796 56.64 208.156 53.4C206.516 50.12 205.696 46.34 205.696 42.06C205.696 37.78 206.516 34 208.156 30.72C209.796 27.44 212.136 24.88 215.176 23.04C218.216 21.2 221.856 20.28 226.096 20.28C231.136 20.28 235.256 21.54 238.456 24.06C241.696 26.54 243.716 30.04 244.516 34.56H236.056C235.536 32.28 234.416 30.5 232.696 29.22C231.016 27.9 228.776 27.24 225.976 27.24C222.096 27.24 219.056 28.56 216.856 31.2C214.656 33.84 213.556 37.46 213.556 42.06C213.556 46.66 214.656 50.28 216.856 52.92C219.056 55.52 222.096 56.82 225.976 56.82C228.776 56.82 231.016 56.22 232.696 55.02C234.416 53.78 235.536 52.08 236.056 49.92H244.516C243.716 54.24 241.696 57.62 238.456 60.06C235.256 62.5 231.136 63.72 226.096 63.72ZM251.314 63V21H278.434V27.18H258.994V38.94H274.714V45H258.994V63H251.314ZM294.141 63V27.18H281.901V21H314.121V27.18H301.821V63H294.141Z" fill="#4CA488"/>
</svg>
