<svg width="77" height="35" viewBox="0 0 77 35" fill="none" xmlns="http://www.w3.org/2000/svg">
<path d="M0 8.03601H4.992L9.12 18.04L13.152 8.03601L51.6562 8.03603V9.99998H18.4399L18.144 26.536H13.152V17.728L10.104 23.488H8.064L4.992 17.728V26.536H0V8.03601Z" fill="#4CA488"/>
<path d="M26.2159 34.048C25.3359 34.048 24.4959 33.9601 23.6959 33.784L24.0799 30.2321C24.7039 30.3281 25.2799 30.3761 25.8079 30.3761C26.7519 30.3761 27.4719 30.0881 27.9679 29.5121C28.4639 28.9521 28.7199 27.8881 28.7359 26.32C27.9039 27.92 26.5679 28.7201 24.7279 28.7201C23.1759 28.7201 21.9599 28.1761 21.0799 27.0881C20.2159 25.9841 19.7839 24.464 19.7839 22.528V16.528H24.8239V23.272C24.8239 23.816 24.9759 24.272 25.2799 24.64C25.5839 24.992 25.9999 25.168 26.5279 25.168C27.0719 25.168 27.5119 24.9361 27.8479 24.472C28.1999 24.008 28.3759 23.4 28.3759 22.648V16.528H33.4399V25.5041C33.4399 28.2881 32.8159 30.4081 31.5679 31.8641C30.3199 33.3201 28.5359 34.048 26.2159 34.048Z" fill="#333333"/>
<path d="M43.5319 28C41.9319 28 40.4759 27.624 39.1639 26.872C37.8679 26.104 36.8359 25.064 36.0679 23.752C35.3159 22.424 34.9399 20.96 34.9399 19.36C34.9399 17.728 35.3079 16.256 36.0439 14.944C36.7799 13.632 37.7879 12.608 39.0679 11.872C40.3479 11.12 41.7879 10.744 43.3879 10.744C44.2519 10.744 45.0999 10.848 45.9319 11.056C46.7639 11.264 47.4759 11.56 48.0679 11.944L47.4199 15.664C46.2679 15.232 45.2279 15.016 44.2999 15.016C43.0199 15.016 42.0359 15.392 41.3479 16.144C40.6599 16.88 40.3159 17.944 40.3159 19.336C40.3159 20.696 40.6759 21.76 41.3959 22.528C42.1319 23.28 43.1479 23.656 44.4439 23.656C44.9399 23.656 45.4039 23.608 45.8359 23.512C46.2679 23.416 46.7959 23.24 47.4199 22.984L48.0919 26.776C46.6999 27.592 45.1799 28 43.5319 28Z" fill="#333333"/>
<path d="M51.6562 11.488H63.0322V15.136H56.8162V18.472H62.5763V21.496H56.8162V28H51.6562V11.488Z" fill="#333333"/>
<path d="M67.9118 15.136H64.4798V11.488H76.9358V15.136H73.5038V28H67.9118V15.136Z" fill="#333333"/>
<path d="M61.6899 2.63158C56.7399 3.68421 55.5849 6.93158 54.4409 9.65263L55.4804 10L56.0029 8.78947C56.2669 8.87895 56.5419 8.94737 56.7399 8.94737C62.7899 8.94737 64.4399 0 64.4399 0C63.8899 1.05263 60.0399 1.18421 57.2899 1.71053C54.5399 2.23684 53.4399 4.47368 53.4399 5.52632C53.4399 6.57895 54.4024 7.5 54.4024 7.5C56.1899 2.63158 61.6899 2.63158 61.6899 2.63158Z" fill="#4CA488"/>
</svg>
