<svg width="16" height="16" viewBox="0 0 16 16" fill="none" xmlns="http://www.w3.org/2000/svg">
<path d="M4.56662 11.4333L2.43328 10.2667L3.13328 9.56668L4.79995 9.80001L7.39995 7.20001L2.19995 4.36668L3.13328 3.43335L9.49995 5.06668L12.1166 2.48335C12.3055 2.29446 12.5417 2.20001 12.8253 2.20001C13.1088 2.20001 13.3448 2.29446 13.5333 2.48335C13.7222 2.67223 13.8166 2.90846 13.8166 3.19201C13.8166 3.47557 13.7222 3.71157 13.5333 3.90001L10.9333 6.50001L12.5666 12.8667L11.6333 13.8L8.79995 8.60001L6.19995 11.2L6.43328 12.8667L5.73328 13.5667L4.56662 11.4333Z" fill="#333333"/>
</svg>
